# xmcd CD database file generated by Grip 3.2.0
# 
# Track frame offsets:
#       150
#       16852
#       34082
#       49417
#       69962
#       80597
#       93240
#       109830
#       118937
#       134310
#       156650
#       172620
#       190690
# 
# Disc length: 2731 seconds
# 
# Revision: 3
# Processed by: cddbd v1.5.1PL2 Copyright (c) Steve Scherf et al.
# Submitted via: Grip 3.2.0
# 
DISCID=a60aa90d
DTITLE=Joan Baez - One Day at a Time
DYEAR=1970
DGENRE=Other
TTITLE0=Sweet Sir Galahad
TTITLE1=No Expectations
TTITLE2=Long Black Veil
TTITLE3=Ghetto
TTITLE4=Carry It On
TTITLE5=Take Me Back to the Sweet Sunny South
TTITLE6=Seven Bridges Road
TTITLE7=Jolie Blonde
TTITLE8=Joe Hill
TTITLE9=A Song for David
TTITLE10=I live One Day at a Time
TTITLE11=Sing Me Back Home
TTITLE12=Mama Tried
EXTD=
EXTT0=
EXTT1=
EXTT2=
EXTT3=
EXTT4=
EXTT5=
EXTT6=
EXTT7=
EXTT8=
EXTT9=
EXTT10=
EXTT11=
EXTT12=
PLAYORDER=
